<?xml version="1.0" encoding="UTF-8" standalone="no"?>
<!-- Created with Inkscape (http://www.inkscape.org/) -->
<svg
   xmlns:svg="http://www.w3.org/2000/svg"
   xmlns="http://www.w3.org/2000/svg"
   version="1.0"
   width="600"
   height="200"
   id="svg2157">
  <defs
     id="defs2159" />
  <g
     transform="translate(-36.41252,-34.200304)"
     id="layer1">
    <path
       d="M 173.57674 124.54137 A 58.005394 56.906807 0 1 1  57.565956,124.54137 A 58.005394 56.906807 0 1 1  173.57674 124.54137 z"
       transform="translate(25.346564,7.802826)"
       style="fill:#beff80;fill-opacity:1;stroke:#000000;stroke-opacity:1"
       id="path2167" />
    <path
       d="M 173.57674 124.54137 A 58.005394 56.906807 0 1 1  57.565956,124.54137 A 58.005394 56.906807 0 1 1  173.57674 124.54137 z"
       transform="matrix(0.3505798,0,0,0.3292564,434.48302,90.493956)"
       style="fill:#beff80;fill-opacity:1;stroke:#000000;stroke-opacity:1"
       id="path3139" />
    <text
       x="123"
       y="114"
       style="font-size:20px;font-style:normal;font-weight:normal;fill:#000000;fill-opacity:1;stroke:none;stroke-width:1px;stroke-linecap:butt;stroke-linejoin:miter;stroke-opacity:1;font-family:Arial"
       id="text3141"
       xml:space="preserve"><tspan
         x="123"
         y="114"
         id="tspan3143">1</tspan></text>
    <text
       x="160"
       y="124"
       style="font-size:20px;font-style:normal;font-weight:normal;fill:#000000;fill-opacity:1;stroke:none;stroke-width:1px;stroke-linecap:butt;stroke-linejoin:miter;stroke-opacity:1;font-family:Arial"
       id="text3173"
       xml:space="preserve"><tspan
         x="160"
         y="124"
         id="tspan3175">2</tspan></text>
    <text
       x="108"
       y="139"
       style="font-size:20px;font-style:normal;font-weight:normal;fill:#000000;fill-opacity:1;stroke:none;stroke-width:1px;stroke-linecap:butt;stroke-linejoin:miter;stroke-opacity:1;font-family:Arial"
       id="text3177"
       xml:space="preserve"><tspan
         x="108"
         y="139"
         id="tspan3179">3</tspan></text>
    <text
       x="133"
       y="158"
       style="font-size:20px;font-style:normal;font-weight:normal;fill:#000000;fill-opacity:1;stroke:none;stroke-width:1px;stroke-linecap:butt;stroke-linejoin:miter;stroke-opacity:1;font-family:Arial"
       id="text3181"
       xml:space="preserve"><tspan
         x="133"
         y="158"
         id="tspan3183">4</tspan></text>
    <text
       x="171"
       y="152"
       style="font-size:20px;font-style:normal;font-weight:normal;fill:#000000;fill-opacity:1;stroke:none;stroke-width:1px;stroke-linecap:butt;stroke-linejoin:miter;stroke-opacity:1;font-family:Arial"
       id="text3185"
       xml:space="preserve"><tspan
         x="171"
         y="152"
         id="tspan3187">5</tspan></text>
    <path
       d="M 192,106 C 237,78 242,125 242,125 C 242,125 247,191 192,162"
       style="fill:none;fill-rule:evenodd;stroke:#000000;stroke-width:1px;stroke-linecap:butt;stroke-linejoin:miter;stroke-opacity:1"
       id="path3195" />
    <text
       x="245"
       y="140"
       style="font-size:20px;font-style:normal;font-weight:normal;fill:#000000;fill-opacity:1;stroke:none;stroke-width:1px;stroke-linecap:butt;stroke-linejoin:miter;stroke-opacity:1;font-family:Arial"
       id="text3197"
       xml:space="preserve"><tspan
         x="245"
         y="140"
         id="tspan3199">Add</tspan></text>
    <path
       d="M 156,150 L 150.4641,161.19615 L 143.5359,150.80385 L 156,150 z "
       transform="translate(46,10)"
       style="fill:#000000;fill-opacity:1;stroke:#000000;stroke-opacity:1"
       id="path3203" />
    <g
       transform="translate(50,14)"
       id="g3213">
      <path
         d="M 434.51712,100.80047 C 431.68869,3.9268395 574.87781,71.455537 440.17397,105.04311"
         style="fill:none;fill-rule:evenodd;stroke:#000000;stroke-width:1px;stroke-linecap:butt;stroke-linejoin:miter;stroke-opacity:1"
         id="path3207" />
      <path
         d="M 451.84123,107.87153 L 440.43618,105.26385 L 448.39703,96.690633 L 451.84123,107.87153 z "
         style="fill:#000000;fill-opacity:1;stroke:#000000;stroke-opacity:1"
         id="path3209" />
    </g>
    <g
       transform="matrix(0.378121,0.9257562,-0.9257562,0.378121,424.39859,-307.20877)"
       id="g3217">
      <path
         d="M 434.51712,100.80047 C 431.68869,3.9268395 574.87781,71.455537 440.17397,105.04311"
         style="fill:none;fill-rule:evenodd;stroke:#000000;stroke-width:1px;stroke-linecap:butt;stroke-linejoin:miter;stroke-opacity:1"
         id="path3219" />
      <path
         d="M 451.84123,107.87153 L 440.43618,105.26385 L 448.39703,96.690633 L 451.84123,107.87153 z "
         style="fill:#000000;fill-opacity:1;stroke:#000000;stroke-opacity:1"
         id="path3221" />
    </g>
    <g
       transform="matrix(-0.7418394,0.6705776,-0.6705776,-0.7418394,867.65163,-66.557403)"
       id="g3223">
      <path
         d="M 434.51712,100.80047 C 431.68869,3.9268395 574.87781,71.455537 440.17397,105.04311"
         style="fill:none;fill-rule:evenodd;stroke:#000000;stroke-width:1px;stroke-linecap:butt;stroke-linejoin:miter;stroke-opacity:1"
         id="path3225" />
      <path
         d="M 451.84123,107.87153 L 440.43618,105.26385 L 448.39703,96.690633 L 451.84123,107.87153 z "
         style="fill:#000000;fill-opacity:1;stroke:#000000;stroke-opacity:1"
         id="path3227" />
    </g>
    <g
       transform="matrix(-0.9456215,-0.325269,0.325269,-0.9456215,836.5074,379.84875)"
       id="g3229">
      <path
         d="M 434.51712,100.80047 C 431.68869,3.9268395 574.87781,71.455537 440.17397,105.04311"
         style="fill:none;fill-rule:evenodd;stroke:#000000;stroke-width:1px;stroke-linecap:butt;stroke-linejoin:miter;stroke-opacity:1"
         id="path3231" />
      <path
         d="M 451.84123,107.87153 L 440.43618,105.26385 L 448.39703,96.690633 L 451.84123,107.87153 z "
         style="fill:#000000;fill-opacity:1;stroke:#000000;stroke-opacity:1"
         id="path3233" />
    </g>
    <g
       transform="translate(-49.255397,-19.638319)"
       id="g3235">
      <g
         transform="matrix(0.2133594,-0.9769738,0.9769738,0.2133594,319.71307,540.50378)"
         id="g3241">
        <path
           d="M 434.51712,100.80047 C 431.68869,3.9268395 574.87781,71.455537 440.17397,105.04311"
           style="fill:none;fill-rule:evenodd;stroke:#000000;stroke-width:1px;stroke-linecap:butt;stroke-linejoin:miter;stroke-opacity:1"
           id="path3237" />
        <path
           d="M 451.84123,107.87153 L 440.43618,105.26385 L 448.39703,96.690633 L 451.84123,107.87153 z "
           style="fill:#000000;fill-opacity:1;stroke:#000000;stroke-opacity:1"
           id="path3239" />
      </g>
      <text
         x="598.47278"
         y="92.012383"
         style="font-size:20px;font-style:normal;font-weight:normal;fill:#000000;fill-opacity:1;stroke:none;stroke-width:1px;stroke-linecap:butt;stroke-linejoin:miter;stroke-opacity:1;font-family:Arial"
         id="text3245"
         xml:space="preserve"><tspan
           x="598.47278"
           y="92.012383"
           id="tspan3247">Add1</tspan></text>
      <text
         x="514.77374"
         y="152.0657"
         transform="translate(99.255397,33.638319)"
         style="font-size:20px;font-style:normal;font-weight:normal;fill:#000000;fill-opacity:1;stroke:none;stroke-width:1px;stroke-linecap:butt;stroke-linejoin:miter;stroke-opacity:1;font-family:Arial"
         id="text3249"
         xml:space="preserve"><tspan
           x="514.77374"
           y="152.0657"
           id="tspan3251">Add2</tspan></text>
      <text
         x="543.31848"
         y="236.96927"
         style="font-size:20px;font-style:normal;font-weight:normal;fill:#000000;fill-opacity:1;stroke:none;stroke-width:1px;stroke-linecap:butt;stroke-linejoin:miter;stroke-opacity:1;font-family:Arial"
         id="text3253"
         xml:space="preserve"><tspan
           x="543.31848"
           y="236.96927"
           id="tspan3255">Add3</tspan></text>
      <text
         x="410.38239"
         y="157.06621"
         style="font-size:20px;font-style:normal;font-weight:normal;fill:#000000;fill-opacity:1;stroke:none;stroke-width:1px;stroke-linecap:butt;stroke-linejoin:miter;stroke-opacity:1;font-family:Arial"
         id="text3257"
         xml:space="preserve"><tspan
           x="410.38239"
           y="157.06621"
           id="tspan3259">Add4</tspan></text>
      <text
         x="419.57477"
         y="88.123291"
         style="font-size:20px;font-style:normal;font-weight:normal;fill:#000000;fill-opacity:1;stroke:none;stroke-width:1px;stroke-linecap:butt;stroke-linejoin:miter;stroke-opacity:1;font-family:Arial"
         id="text3261"
         xml:space="preserve"><tspan
           x="419.57477"
           y="88.123291"
           id="tspan3263">Add5</tspan></text>
    </g>
    <path
       d="M 77.781748 106.45732 A 1.5909903 1.4142135 0 1 1  74.599767,106.45732 A 1.5909903 1.4142135 0 1 1  77.781748 106.45732 z"
       transform="translate(49.535534,9.2928932)"
       style="fill:#000000;fill-opacity:1;stroke:#000000;stroke-opacity:1"
       id="path3265" />
    <path
       d="M 77.781748 106.45732 A 1.5909903 1.4142135 0 1 1  74.599767,106.45732 A 1.5909903 1.4142135 0 1 1  77.781748 106.45732 z"
       transform="translate(81.17856,19.19239)"
       style="fill:#000000;fill-opacity:1;stroke:#000000;stroke-opacity:1"
       id="path3267" />
    <path
       d="M 77.781748 106.45732 A 1.5909903 1.4142135 0 1 1  74.599767,106.45732 A 1.5909903 1.4142135 0 1 1  77.781748 106.45732 z"
       transform="translate(92.492269,47.123108)"
       style="fill:#000000;fill-opacity:1;stroke:#000000;stroke-opacity:1"
       id="path3269" />
    <path
       d="M 77.781748 106.45732 A 1.5909903 1.4142135 0 1 1  74.599767,106.45732 A 1.5909903 1.4142135 0 1 1  77.781748 106.45732 z"
       transform="translate(58.904697,54.901283)"
       style="fill:#000000;fill-opacity:1;stroke:#000000;stroke-opacity:1"
       id="path3271" />
    <path
       d="M 77.781748 106.45732 A 1.5909903 1.4142135 0 1 1  74.599767,106.45732 A 1.5909903 1.4142135 0 1 1  77.781748 106.45732 z"
       transform="translate(33.095299,36.87006)"
       style="fill:#000000;fill-opacity:1;stroke:#000000;stroke-opacity:1"
       id="path3273" />
  </g>
</svg>
